<svg width="40" height="40" viewBox="0 0 40 40" fill="none" xmlns="http://www.w3.org/2000/svg">
<path d="M23.3337 35V29.875L32.542 20.7083C32.792 20.4583 33.0698 20.2778 33.3753 20.1667C33.6809 20.0555 33.9864 20 34.292 20C34.6253 20 34.9448 20.0628 35.2503 20.1883C35.5559 20.3139 35.8337 20.5011 36.0837 20.75L37.6253 22.2917C37.8476 22.5417 38.0214 22.8194 38.147 23.125C38.2726 23.4305 38.3348 23.7361 38.3337 24.0417C38.3326 24.3472 38.277 24.66 38.167 24.98C38.057 25.3 37.8764 25.5844 37.6253 25.8333L28.4587 35H23.3337ZM6.66699 33.3333V28.6667C6.66699 27.7222 6.91033 26.8544 7.39699 26.0633C7.88366 25.2722 8.52921 24.6678 9.33366 24.25C11.0559 23.3889 12.8059 22.7433 14.5837 22.3133C16.3614 21.8833 18.167 21.6678 20.0003 21.6667C21.0281 21.6667 22.042 21.7294 23.042 21.855C24.042 21.9805 25.042 22.1817 26.042 22.4583L20.0003 28.5V33.3333H6.66699ZM34.292 25.6667L35.8337 24.0417L34.292 22.5L32.7087 24.0833L34.292 25.6667ZM15.292 18.0417C13.9864 16.7361 13.3337 15.1667 13.3337 13.3333C13.3337 11.5 13.9864 9.93055 15.292 8.62499C16.5975 7.31943 18.167 6.66666 20.0003 6.66666C21.8337 6.66666 23.4031 7.31943 24.7087 8.62499C26.0142 9.93055 26.667 11.5 26.667 13.3333C26.667 15.1667 26.0142 16.7361 24.7087 18.0417C23.4031 19.3472 21.8337 20 20.0003 20C18.167 20 16.5975 19.3472 15.292 18.0417Z" fill="black"/>
</svg>
